<svg width="190.414" height="46.9" viewBox="0 0 190.414 46.9" xmlns="http://www.w3.org/2000/svg"><g id="svgGroup" stroke-linecap="round" fill-rule="evenodd" font-size="9pt" stroke="#04421b" stroke-width="0.1mm" fill="#0ff56f" style="stroke:#04421b;stroke-width:0.1mm;fill:#0ff56f"><path d="M 145.055 0 L 125.96 0 L 120.533 5.561 L 123.213 9.581 L 127.97 4.824 L 142.442 4.824 L 146.73 11.256 L 120.466 38.458 L 120.466 46.9 L 150.214 46.9 L 150.214 42.076 L 125.826 42.076 L 125.826 39.865 L 150.214 14.74 L 150.214 7.705 L 145.055 0 Z M 109.947 0 L 80.333 0 L 80.333 4.891 L 92.46 4.891 L 92.46 42.009 L 80.333 42.009 L 80.333 46.9 L 109.947 46.9 L 109.947 42.009 L 97.82 42.009 L 97.82 4.891 L 109.947 4.891 L 109.947 0 Z M 29.48 0 L 10.854 0 L 0 11.189 L 0 46.9 L 5.36 46.9 L 5.36 25.46 L 24.12 25.46 L 24.12 46.9 L 29.48 46.9 L 29.48 0 Z M 64.387 0 L 40.133 0 L 40.133 46.9 L 45.493 46.9 L 45.493 24.321 L 64.387 24.321 L 69.747 18.894 L 69.747 8.04 L 64.387 0 Z M 160.666 5.561 L 166.093 0 L 185.121 0 L 190.414 8.04 L 190.414 41.339 L 185.121 46.9 L 166.093 46.9 L 160.666 38.86 L 160.666 5.561 Z M 166.026 7.035 L 166.026 38.19 L 168.639 42.076 L 182.977 42.076 L 184.987 39.865 L 184.987 8.71 L 182.441 4.824 L 168.103 4.824 L 166.026 7.035 Z M 45.56 22.713 L 45.56 4.824 L 61.774 4.824 L 64.387 8.777 L 64.387 17.42 L 62.31 19.564 L 50.987 19.564 L 45.56 22.713 Z M 5.36 20.636 L 5.36 12.462 L 12.797 4.824 L 24.12 4.824 L 24.12 20.636 L 5.36 20.636 Z" vector-effect="non-scaling-stroke"/></g></svg>